# xmcd CD database file
#
# Track frame offsets:
#	150
#	12418
#	25668
#	54804
#	68088
#	82923
#	101463
#	127993
#	151195
#	176901
#	191342
#	269522
#	292151
#	306948
#
# Disc length: 4273 seconds
#
# Revision: 1
# Processed by: cddbd v1.5.2PL0 Copyright (c) Steve Scherf et al.
# Submitted via: CDex 1.70beta2
#
DISCID=b410af0e
DTITLE=Various Artist - Montecarlo Night Jazz 1/3
DYEAR=2007
DGENRE=Jazz
TTITLE0=Louis Armstrong - When The Saints Go Marchin' In
TTITLE1=Thelonious Monk - Straight No Chaser
TTITLE2=Wes Montgomery - 4 On 6
TTITLE3=Tommy Dorsey - Opus No. 1
TTITLE4=Astrud Gilberto - The Girl From Ipanema
TTITLE5=Frank Sinatra - Ol' Man River
TTITLE6=Ella Fitzgerald and Louis Armstrong - Cheek To Cheek
TTITLE7=Bill Evans - Alfie
TTITLE8=Miles Davis Quintet - Half Nelson
TTITLE9=Sarah Vaughan - It Might As Well Be Spring
TTITLE10=Thelonious Monk - Lulu's Back In Town
TTITLE11=Nina Simone - I Loves You Porgy
TTITLE12=Django Reinhardt and Stephane Grappelli - Nuages
TTITLE13=Duke Ellington - It Don't Mean A Thing (If It Ain't Got That Swing)
EXTD=YEAR: 2007
EXTT0=
EXTT1=
EXTT2=
EXTT3=
EXTT4=
EXTT5=
EXTT6=
EXTT7=
EXTT8=
EXTT9=
EXTT10=
EXTT11=
EXTT12=
EXTT13=
PLAYORDER=
